<?xml version="1.0" standalone="no"?><!DOCTYPE svg PUBLIC "-//W3C//DTD SVG 1.1//EN" "http://www.w3.org/Graphics/SVG/1.1/DTD/svg11.dtd"><svg class="icon" style="" viewBox="0 0 1940 1024" version="1.1" xmlns="http://www.w3.org/2000/svg" p-id="5767" xmlns:xlink="http://www.w3.org/1999/xlink" width="378.90625" height="200"><defs><style type="text/css"><![CDATA[

]]></style></defs><path d="M1848.904 349.013v-163.84c0-90.112-78.309-163.84-174.080-163.84h-1479.411c-95.771 0-174.080 73.728-174.080 163.84v655.252c0 90.112 78.309 163.84 174.080 163.84h1479.411c95.771 0 174.080-73.728 174.080-163.84v-163.84c47.912 0 87.040-36.81 87.040-81.92v-163.732c0-45.056-39.128-81.92-87.040-81.92zM1761.917 430.933v409.546c0 45.002-39.181 81.866-87.040 81.866h-1479.464c-47.912 0-87.040-36.864-87.040-81.92v-655.252c0-45.056 39.128-81.92 87.040-81.92h1479.411c47.966 0 87.094 36.864 87.094 81.92v245.76z" fill="#ffffff" p-id="5768"></path></svg>