<?xml version="1.0" encoding="UTF-8" standalone="no"?>
<svg width="68px" height="61px" viewBox="0 0 68 61" version="1.1" xmlns="http://www.w3.org/2000/svg" xmlns:xlink="http://www.w3.org/1999/xlink">
    <!-- Generator: Sketch 41 (35326) - http://www.bohemiancoding.com/sketch -->
    <title>光碟</title>
    <desc>Created with Sketch.</desc>
    <defs></defs>
    <g id="设置" stroke="none" stroke-width="1" fill="none" fill-rule="evenodd">
        <g id="下载选择" transform="translate(-832.000000, -328.000000)" fill="#272636">
            <g id="光碟" transform="translate(866.000000, 358.500000) scale(1, -1) translate(-866.000000, -358.500000) translate(832.000000, 328.000000)">
                <g id="Group">
                    <path d="M61.6113391,60.9927488 L48.1960672,60.9927488 C48.1026916,60.9927488 48.0133521,60.9825501 47.9250217,60.9702168 L12.1630975,60.9692681 C11.5948492,60.9692681 11.1350345,60.5009196 11.1350345,59.922125 L11.1350345,1.09608584 C11.1350345,0.517765606 11.5948492,0.0489427709 12.1630975,0.0489427709 L62.3623025,0.0489427709 C62.5631027,0.0489427709 62.7498539,0.107209585 62.9085071,0.208484873 C65.7979502,0.827204553 67.9304534,3.45577478 67.9304534,6.48533476 L67.9304534,54.5565149 C67.9304534,57.6182521 65.752776,60.2709355 62.8151315,60.8517066 C62.6760956,60.9285458 62.5204856,60.9689718 62.3623025,60.9693471 L61.8382193,60.9693471 C61.7940541,60.9825501 61.704637,60.9927487 61.6113391,60.9927488 L61.6113391,60.9927488 Z M13.1911606,58.8749028 L47.9691869,58.8749028 C48.0816568,58.8790139 48.1519019,58.8871571 48.2212156,58.8974349 L61.5792048,58.8984626 C61.6645081,58.8862084 61.7297856,58.8779862 61.7980903,58.8759307 L62.0400286,58.8749028 C62.0972337,58.8554542 62.1554479,58.8401166 62.2166893,58.8309458 C64.3020001,58.5271992 65.874172,56.6885914 65.8741721,54.5564358 L65.8741721,6.48525569 C65.8741721,4.35262566 64.3019226,2.51441328 62.2166893,2.20971797 C62.1336483,2.19785953 62.0523782,2.17552501 61.9747511,2.1432289 L13.1911606,2.1432289 L13.1911606,58.8749028 L13.1911606,58.8749028 Z" id="Shape"></path>
                    <polygon id="Shape" points="1.08105134 1.10786571 12.6141413 1.10786571 12.6141413 59.9335096 1.08105134 59.9335096"></polygon>
                    <path d="M12.6139084,60.9804945 L1.08112897,60.9804945 C0.512880638,60.9804945 0.0530659264,60.512146 0.0530659264,59.9333515 L0.0530659264,1.10778664 C0.0530659264,0.52946641 0.512880638,0.0606435747 1.08112897,0.0606435747 L12.6139084,0.0606435747 C13.1821568,0.0606435747 13.6419715,0.529545478 13.6419715,1.10778664 L13.6419715,59.9333515 C13.6419715,60.512146 13.1821568,60.9804945 12.6139084,60.9804945 L12.6139084,60.9804945 Z M2.10919201,58.8861293 L11.5857678,58.8861293 L11.5857678,2.15500877 L2.10919201,2.15500877 L2.10919201,58.8861293 L2.10919201,58.8861293 Z" id="Shape"></path>
                </g>
                <path d="M53.0935124,16.7713335 C60.6145701,24.3452327 60.6145701,36.625296 53.0935124,44.1991952 C45.5724548,51.7730943 33.378067,51.7730943 25.8570094,44.1991952 C18.3359518,36.625296 18.3359518,24.3452327 25.8570094,16.7713335 C33.378067,9.1974343 45.5719711,9.1974343 53.0935124,16.7713335 L53.0935124,16.7713335 Z M36.1677467,27.1549992 C34.3411765,28.9944026 34.3411765,31.9766132 36.1677467,33.8160165 C37.9943169,35.6554199 40.9557212,35.6554199 42.7822914,33.8160165 C44.6088616,31.9766132 44.6088616,28.9944026 42.7822914,27.1549992 C40.9557212,25.3155959 37.9943169,25.3155959 36.1677467,27.1549992 L36.1677467,27.1549992 Z M30.2488079,21.194475 C31.264644,20.1715017 32.4057667,19.3511746 33.6218677,18.7276481 L32.9804397,17.1795485 C31.5698786,17.8873486 30.2468729,18.8279969 29.0723728,20.0102617 C27.8983564,21.1925265 26.9642709,22.5253145 26.261409,23.9452988 L27.7987077,24.5912334 C28.4183678,23.3665882 29.2329717,22.2169611 30.2488079,21.194475 L30.2488079,21.194475 Z M33.3935464,24.361308 C33.9861176,23.7645735 34.6459273,23.2774434 35.3439519,22.8848165 L34.6976866,21.3245388 C33.8061694,21.8048491 32.9688302,22.4210687 32.2180789,23.1775817 C31.4673275,23.9336077 30.8549234,24.7768299 30.3784479,25.6746108 L31.92784,26.3254166 C32.3177276,25.6220007 32.8009753,24.9580424 33.3935464,24.361308 L33.3935464,24.361308 Z M45.3281704,42.2428806 L45.9695984,43.7909801 C47.3796758,43.08318 48.7031652,42.1425318 49.8771816,40.960267 C51.051198,39.7780021 51.9852835,38.4452141 52.6881454,37.0247427 L51.1508467,36.3788081 C50.5316703,37.6034533 49.7170665,38.7525932 48.7012303,39.7755665 C47.6853941,40.799514 46.5442714,41.6198411 45.3281704,42.2428806 L45.3281704,42.2428806 Z M43.6060862,38.0857121 L44.2523515,39.6459899 C45.1438687,39.1656796 45.981208,38.54946 46.7319593,37.793434 C47.4827106,37.0374081 48.0951147,36.1941858 48.5715902,35.296405 L47.0221982,34.6455991 C46.6323106,35.3485279 46.1485791,36.0124863 45.556008,36.6097078 C44.9639206,37.2064422 44.3041108,37.6930852 43.6060862,38.0857121 L43.6060862,38.0857121 Z" id="Shape"></path>
            </g>
        </g>
    </g>
</svg>