<?xml version="1.0" encoding="UTF-8" standalone="no"?>
<svg width="54px" height="65px" viewBox="0 0 54 65" version="1.1" xmlns="http://www.w3.org/2000/svg" xmlns:xlink="http://www.w3.org/1999/xlink">
    <!-- Generator: Sketch 41 (35326) - http://www.bohemiancoding.com/sketch -->
    <title>usb</title>
    <desc>Created with Sketch.</desc>
    <defs></defs>
    <g id="设置" stroke="none" stroke-width="1" fill="none" fill-rule="evenodd">
        <g id="下载选择" transform="translate(-499.000000, -329.000000)" fill="#272636">
            <g id="usb" transform="translate(499.000000, 329.000000)">
                <g id="Group">
                    <path d="M3.01177989,43.8488313 L3.01177989,2.02641213 C3.01177989,0.923676025 3.90627768,0.0297317817 5.01218372,0.0297317817 L48.987742,0.0297317817 C50.0925346,0.0297317817 50.9881459,0.924891364 50.9881459,2.02641213 L50.9881459,43.8488313 L3.01177989,43.8488313 Z M6.81191826,40.0591114 L47.1880818,40.0591114 L47.1880817,3.81945168 L6.81191826,3.81945168 L6.81191826,40.0591114 L6.81191826,40.0591114 Z" id="Shape"></path>
                    <polygon id="Shape" points="27.713459 6.89869169 27.713459 3.4642117 25.8134269 3.4642117 25.8134269 8.79355164 29.9104314 8.79355164 29.9104314 16.7283796 26.049984 16.7283796 26.049984 20.2812976 26.049984 22.7682735 26.049984 23.7157035 21.9529796 23.7157035 21.9529796 35.4403254 25.8134269 35.4403254 25.8134269 39.5853594 27.713459 39.5853594 27.713459 33.5454654 23.8530116 33.5454654 23.8530116 25.6106375 27.950016 25.6106375 27.950016 22.7682735 27.950016 20.2812976 27.950016 18.6232395 31.8104634 18.6232395 31.8104634 6.89869169"></polygon>
                    <polygon id="Shape" points="8.65260675 17.9126856 19.4591411 17.9126856 19.4591411 23.1235875 8.65260675 23.1235875 8.65260675 17.9126856"></polygon>
                    <polygon id="Shape" points="34.184575 17.9126856 44.9911094 17.9126856 44.9911094 23.1235875 34.184575 23.1235875"></polygon>
                    <path d="M0.0429705726,62.9282603 C0.0429705726,64.0334941 0.933767856,64.9294631 2.04187451,64.9294631 L51.9581256,64.9294631 C53.0620897,64.9294631 53.9570295,64.0326028 53.9570295,62.9282603 L53.9570294,38.8748054 L0.0429705726,38.8748054 L0.0429705726,62.9282603 Z" id="Shape"></path>
                </g>
            </g>
        </g>
    </g>
</svg>