<?xml version="1.0" encoding="UTF-8" standalone="no"?>
<svg width="18px" height="18px" viewBox="0 0 18 18" version="1.1" xmlns="http://www.w3.org/2000/svg" xmlns:xlink="http://www.w3.org/1999/xlink">
    <!-- Generator: Sketch 45.2 (43514) - http://www.bohemiancoding.com/sketch -->
    <title>资产选中</title>
    <desc>Created with Sketch.</desc>
    <defs></defs>
    <g id="Page-1" stroke="none" stroke-width="1" fill="none" fill-rule="evenodd">
        <g id="01申请人信息填写-方案一-copy" transform="translate(-20.000000, -218.000000)" fill-rule="nonzero">
            <g id="资产选中" transform="translate(20.000000, 218.000000)">
                <path d="M16.6010296,5.43982978 C16.7208165,5.56220355 16.7208165,5.75788154 16.6010296,5.88025531 L9.04179554,11.0497021 C8.98444947,11.1077539 8.90624674,11.1404271 8.82464661,11.1404271 C8.74304648,11.1404271 8.66484375,11.1077539 8.60749768,11.0497021 L1.04826363,5.88025531 C0.928272341,5.75796498 0.928272341,5.56212011 1.04826363,5.43982978 L8.60711469,0.582127664 C8.66446076,0.524075874 8.74266349,0.491402734 8.82426363,0.491402734 C8.90586376,0.491402734 8.9840665,0.524075874 9.04141257,0.582127664 L16.6010296,5.43982978 Z" id="Shape" fill="#C8EEFF"></path>
                <path d="M8.8246466,11.6318298 C8.63367444,11.6322314 8.44918188,11.5626038 8.30609343,11.4361277 L0.73881682,6.26093617 L0.705880652,6.22761703 C0.39695672,5.91249761 0.396786516,5.40817892 0.705497678,5.09285106 L0.743412568,5.05417022 L8.31260406,0.189957445 C8.45487526,0.0671013433 8.63667161,-0.00034143384 8.8246466,1.873495e-16 C9.01422107,1.873495e-16 9.19345511,0.0670212773 9.33630618,0.19034042 L16.9058807,5.05455319 L16.9437955,5.09323405 C17.2523026,5.40864511 17.2521325,5.91279725 16.9434126,6.228 L16.9104764,6.26131914 L16.8717955,6.28774469 L9.34281682,11.4361277 C9.19992068,11.5626713 9.01551924,11.6323159 8.8246466,11.6318298 Z M1.6012849,5.66617022 L8.8246466,10.6058298 L16.0480083,5.66617022 L8.82426363,1.02408511 L1.6012849,5.66617022 Z" id="Shape" fill="#03A9F4"></path>
                <path d="M8.8246466,14.9277447 C8.72737001,14.9277447 8.63239129,14.8978724 8.55196576,14.8423404 L0.226008316,9.09765958 C0.00766524705,8.94218487 -0.0471812773,8.64112332 0.102306182,8.4186383 C0.17316631,8.31198606 0.283654091,8.23801749 0.409260622,8.21314064 C0.534867153,8.18826379 0.665207874,8.21453536 0.771370014,8.28612766 L8.8246466,13.842383 L16.8779232,8.28574469 C16.9841165,8.21425511 17.1144259,8.18804418 17.2400015,8.21291489 C17.365577,8.2377856 17.476059,8.31168618 17.546987,8.41825531 C17.6963487,8.64076595 17.6411998,8.94370212 17.4232849,9.09765958 L9.09732746,14.8423404 C9.01690193,14.8978723 8.92192321,14.9277447 8.8246466,14.9277447 L8.8246466,14.9277447 Z" id="Shape" fill="#03A9F4"></path>
                <path d="M8.8246466,18 C8.72737001,18 8.63239129,17.9701277 8.55196576,17.9145957 L0.226008316,12.1699149 C0.00502959375,12.0174894 -0.0524172129,11.7118723 0.0984764004,11.4878298 C0.249370014,11.2637872 0.550391291,11.2055745 0.771752988,11.358383 L8.82502959,16.9150213 L16.8783062,11.358383 C17.0993856,11.2120503 17.3972046,11.272368 17.5439232,11.4931915 C17.6926518,11.7144645 17.6394945,12.0137705 17.4236679,12.1702979 L9.09771043,17.9149787 C9.0173927,17.9703042 8.92217528,17.9999511 8.8246466,18 L8.8246466,18 Z" id="Shape" fill="#03A9F4"></path>
            </g>
        </g>
    </g>
</svg>