<?xml version="1.0" encoding="UTF-8" standalone="no"?>
<svg width="18px" height="18px" viewBox="0 0 18 18" version="1.1" xmlns="http://www.w3.org/2000/svg" xmlns:xlink="http://www.w3.org/1999/xlink">
    <!-- Generator: Sketch 45.2 (43514) - http://www.bohemiancoding.com/sketch -->
    <title>计划统计 copy 6</title>
    <desc>Created with Sketch.</desc>
    <defs></defs>
    <g id="Page-1" stroke="none" stroke-width="1" fill="none" fill-rule="evenodd">
        <g id="01申请人信息填写-方案一-copy" transform="translate(-20.000000, -468.000000)">
            <g id="计划统计-copy-6" transform="translate(20.000000, 468.000000)">
                <path d="M17.9886171,15.7370516 C17.9886171,16.9755542 17.0912332,17.990181 15.851872,17.990181 L2.1575478,17.990181 C0.91820701,17.990181 0.0131159667,16.9755542 0.0131159667,15.7370516 L0.0131159667,2.25627924 C0.0131159667,1.01738821 0.918227467,0.0164175782 2.1575478,0.0164175782 L15.851872,0.0164175782 C17.0912333,0.0164175782 17.9916019,0.917256406 17.9916019,2.15616788 L17.9886171,15.7370516 L17.9886171,15.7370516 Z" id="Path" fill="#C8EEFF"></path>
                <path d="M17.9886171,15.7370516 C17.9886171,16.9755542 17.0912332,17.990181 15.851872,17.990181 L2.1575478,17.990181 C0.91820701,17.990181 0.0131159667,16.9755542 0.0131159667,15.7370516 L0.0131159667,2.25627924 C0.0131159667,1.01738821 0.918227467,0.0164175782 2.1575478,0.0164175782 L15.851872,0.0164175782 C17.0912333,0.0164175782 17.9916019,0.917256406 17.9916019,2.15616788 L17.9886171,15.7370516 L17.9886171,15.7370516 Z M17.0130577,2.25942752 C17.0160219,1.6427521 16.3736492,0.959983112 15.7485715,0.994961787 C15.4054902,0.994961787 2.57821184,0.994961787 2.26082793,0.994961787 C1.65515104,0.994961787 0.99720038,1.61580768 0.996362191,2.25942752 C0.996362191,2.25942752 0.998467871,15.3358292 0.998467871,15.6598982 C0.948729057,16.2744679 1.64165842,17.012475 2.26082793,17.0116777 L15.7485715,17.0116777 C16.3585006,17.0116777 17.0130577,16.3570798 17.0130577,15.7471711 L17.0130577,2.25942752 L17.0130577,2.25942752 Z M14.2397457,14.2214181 L14.2397457,15.4225298 C14.2397457,15.6587533 14.0033585,15.8504716 13.7121422,15.8504716 C13.4208849,15.8504716 13.1845795,15.6587533 13.1845795,15.4225298 L13.1845795,14.0783143 C12.49118,13.9022965 11.8470286,13.223698 11.8470286,12.4268957 C11.8470286,11.6300321 12.4605149,10.9585887 13.1845795,10.7754362 L13.1845795,2.58408931 C13.1845795,2.34786572 13.4208849,2.15612698 13.7121422,2.15612698 C14.0033585,2.15612698 14.2397457,2.34784528 14.2397457,2.58408931 L14.2397457,10.7754158 C14.9442869,10.9892334 15.5772148,11.6300321 15.5772148,12.4268753 C15.5772148,13.223698 14.9136217,13.9942714 14.2397457,14.1396241 L14.2397457,14.2214181 Z M13.7121422,11.6016566 C13.2562133,11.6016566 12.8869031,11.9709259 12.8869031,12.4268753 C12.8869031,12.8828246 13.2562133,13.2521348 13.7121422,13.2521348 C14.1680711,13.2521348 14.5373813,12.8828246 14.5373813,12.4268753 C14.5373813,11.9709259 14.1680711,11.6016566 13.7121422,11.6016566 L13.7121422,11.6016566 Z M4.83577749,14.2827484 L4.83577749,15.48386 C4.83577749,15.7200836 4.59939035,15.9118019 4.308174,15.9118019 C4.01691676,15.9118019 3.78061138,15.7200836 3.78061138,15.48386 L3.78061138,14.1396445 C3.08721182,13.9636268 2.44306045,13.2850283 2.44306045,12.4882259 C2.44306045,11.6913623 3.05654672,11.019919 3.78061138,10.8367665 L3.78061138,2.64541954 C3.78061138,2.40919596 4.01691674,2.21745722 4.308174,2.21745722 C4.59939037,2.21745722 4.83577749,2.40917552 4.83577749,2.64541954 L4.83577749,10.836746 C5.54031871,11.0505636 6.17324664,11.6913623 6.17324664,12.4882055 C6.17324664,13.2850282 5.50965358,14.0556016 4.83577749,14.2009543 L4.83577749,14.2827484 Z M4.308174,11.6629868 C3.85224509,11.6629868 3.48293491,12.0322561 3.48293491,12.4882055 C3.48293491,12.9441548 3.85224509,13.313465 4.308174,13.313465 C4.76410291,13.313465 5.13341309,12.9441548 5.13341309,12.4882055 C5.13341309,12.0322561 4.76410289,11.6629868 4.308174,11.6629868 L4.308174,11.6629868 Z M8.48253414,3.8465107 L8.48253414,2.64539909 C8.48253414,2.4091755 8.71892129,2.2174572 9.01013764,2.2174572 C9.30139488,2.2174572 9.53770026,2.4091755 9.53770026,2.64539909 L9.53770026,3.98961455 C10.2310998,4.1656323 10.8752512,4.84423082 10.8752512,5.64103315 C10.8752512,6.43789678 10.2617649,7.10934011 9.53770026,7.29249261 L9.53770026,15.4838191 C9.53770026,15.7200427 9.3013949,15.9117814 9.01013764,15.9117814 C8.71892127,15.9117814 8.48253414,15.7200427 8.48253414,15.4838191 L8.48253414,7.29251307 C7.77799293,7.07869544 7.145065,6.4378968 7.145065,5.6410536 C7.145065,4.84423084 7.80865805,4.07365743 8.48253414,3.9283048 L8.48253414,3.8465107 Z M9.0101172,6.46627225 C9.46604611,6.46627225 9.83535629,6.09700295 9.83535629,5.6410536 C9.83535629,5.18510425 9.46604611,4.81579406 9.0101172,4.81579406 C8.55418829,4.81579406 8.18487811,5.18510423 8.18487811,5.6410536 C8.18487811,6.09700297 8.55418829,6.46627225 9.0101172,6.46627225 L9.0101172,6.46627225 Z" id="Shape" fill="#03A9F4" fill-rule="nonzero"></path>
            </g>
        </g>
    </g>
</svg>