<?xml version="1.0" encoding="UTF-8" standalone="no"?>
<svg width="18px" height="18px" viewBox="0 0 18 18" version="1.1" xmlns="http://www.w3.org/2000/svg" xmlns:xlink="http://www.w3.org/1999/xlink">
    <!-- Generator: Sketch 45.2 (43514) - http://www.bohemiancoding.com/sketch -->
    <title>代码</title>
    <desc>Created with Sketch.</desc>
    <defs></defs>
    <g id="Page-1" stroke="none" stroke-width="1" fill="none" fill-rule="evenodd">
        <g id="01申请人信息填写-方案一-copy" transform="translate(-20.000000, -518.000000)" fill-rule="nonzero" fill="#03A9F4">
            <g id="代码" transform="translate(20.000000, 518.000000)">
                <path d="M15.7368421,17.9824561 L2.2631579,17.9824561 C1.02245613,17.9824561 0.0175438618,16.9775439 0.0175438618,15.7368421 L0.0175438618,2.2631579 C0.0175438618,1.02245613 1.02245613,0.0175438618 2.2631579,0.0175438618 L15.7368421,0.0175438618 C16.9775439,0.0175438618 17.9824561,1.02245613 17.9824561,2.2631579 L17.9824561,15.7368421 C17.9824561,16.9775439 16.9775439,17.9824561 15.7368421,17.9824561 Z M16.8731228,2.15985965 C16.8731228,1.59059649 16.3701053,1.128 15.7480702,1.128 L2.25192983,1.128 C1.62989473,1.128 1.12687719,1.59059649 1.12687719,2.15985965 L1.12687719,3.39719297 L16.8731228,3.39719297 L16.8731228,2.15985965 Z M16.8731228,4.50877192 L1.12687719,4.50877192 L1.12687719,15.7289825 C1.12687719,16.3611228 1.62989473,16.8731228 2.25192983,16.8731228 L15.7480702,16.8731228 C16.3701053,16.8731228 16.8731228,16.3611228 16.8731228,15.7289825 L16.8731228,4.50877192 Z M13.1802105,13.6327018 C12.9915789,13.8190877 12.6861754,13.8190877 12.4964211,13.6327018 C12.3077895,13.4474386 12.3077895,13.1454035 12.4964211,12.9601403 L14.9834386,10.9301053 L12.4964211,8.90007018 C12.3077895,8.7136842 12.3077895,8.41277193 12.4964211,8.22638597 C12.6861754,8.04112281 12.9915789,8.04112281 13.1802105,8.22638597 L16.0501053,10.5696842 C16.1511579,10.6684912 16.1938246,10.7998597 16.1870877,10.9301053 C16.1938246,11.0592281 16.1511579,11.1917193 16.0501053,11.2905263 L13.1802105,13.6327018 Z M8.31733334,15.0698947 C8.18484211,15.2955789 7.97263159,15.3337544 7.66273684,15.242807 C7.41010526,15.1687018 7.35508772,14.8217544 7.48757895,14.5949474 L9.88364913,6.53768422 C9.88364913,6.53768422 10.3080702,6.23340351 10.5371228,6.36477193 C10.7672982,6.49501755 10.8447719,6.78582456 10.7134035,7.01150878 L8.31733334,15.0698947 Z M5.50245614,13.6327018 C5.31382457,13.8190877 5.00842105,13.8190877 4.81978948,13.6327018 L1.94989474,11.2905263 C1.84884211,11.1917193 1.80617544,11.0592281 1.81291228,10.9301053 C1.80617544,10.7998597 1.84884211,10.6684912 1.94989474,10.5696842 L4.81978948,8.22638597 C5.00842105,8.04112281 5.31382457,8.04112281 5.50245614,8.22638597 C5.69221052,8.41277193 5.69221052,8.7136842 5.50245614,8.90007018 L3.01543859,10.9301053 L5.50245614,12.9601403 C5.69221052,13.1454035 5.69221052,13.4474386 5.50245614,13.6327018 Z" id="Shape"></path>
            </g>
        </g>
    </g>
</svg>