<?xml version="1.0" encoding="UTF-8" standalone="no"?>
<svg width="18px" height="15px" viewBox="0 0 18 15" version="1.1" xmlns="http://www.w3.org/2000/svg" xmlns:xlink="http://www.w3.org/1999/xlink">
    <!-- Generator: Sketch 45.2 (43514) - http://www.bohemiancoding.com/sketch -->
    <title>查找 表单 列表</title>
    <desc>Created with Sketch.</desc>
    <defs></defs>
    <g id="Page-1" stroke="none" stroke-width="1" fill="none" fill-rule="evenodd">
        <g id="01申请人信息填写-方案一-copy" transform="translate(-20.000000, -170.000000)">
            <g id="查找-表单-列表" transform="translate(20.000000, 170.000000)">
                <circle id="Oval" fill="#C8EEFF" cx="12" cy="9" r="4"></circle>
                <path d="M0.604170656,8.750625 L4.20042456,8.750625 C4.53127992,8.750625 4.79980021,8.470625 4.79980021,8.125625 C4.79980021,7.780625 4.53127992,7.500625 4.20042456,7.500625 L0.604170656,7.500625 C0.273315297,7.500625 0.0047950052,7.780625 0.0047950052,8.125625 C0.0047950052,8.470625 0.273315297,8.750625 0.604170656,8.750625 Z M17.8134443,13.973125 L15.7491946,11.820625 C16.388129,10.970625 16.7861145,9.914375 16.7861145,8.749375 C16.7861145,5.988125 14.6391509,3.749375 11.9911093,3.749375 C9.34306764,3.749375 7.19610406,5.988125 7.19610406,8.749375 C7.19610406,11.510625 9.34306764,13.749375 11.9911093,13.749375 C13.1083455,13.749375 14.1212903,13.334375 14.9364412,12.668125 L17.0006909,14.820625 C17.2260562,15.054375 17.5880791,15.054375 17.8134443,14.820625 C18.0376108,14.585625 18.0376108,14.208125 17.8134443,13.973125 Z M14.561232,11.368125 C14.5504433,11.378125 14.5360583,11.381875 14.5264683,11.393125 C14.5168783,11.404375 14.5120832,11.419375 14.5024932,11.429375 C13.8539688,12.089375 12.9704891,12.499375 11.9911093,12.499375 C10.0047784,12.499375 8.39485536,10.820625 8.39485536,8.749375 C8.39485536,6.678125 10.0047784,4.999375 11.9911093,4.999375 C13.9774402,4.999375 15.5873632,6.678125 15.5873632,8.749375 C15.5885619,9.770625 15.1953715,10.691875 14.561232,11.368125 Z M0.604170656,1.250625 L11.3929324,1.250625 C11.7237877,1.250625 11.992308,0.970625 11.992308,0.625625 C11.992308,0.280625 11.7237877,0.000625 11.3929324,0.000625 L0.604170656,0.000625 C0.273315297,0.000625 0.0047950052,0.280625 0.0047950052,0.625625 C0.0047950052,0.970625 0.273315297,1.250625 0.604170656,1.250625 Z M5.39917586,3.750625 L0.604170656,3.750625 C0.273315297,3.750625 0.0047950052,4.030625 0.0047950052,4.375625 C0.0047950052,4.720625 0.273315297,5.000625 0.604170656,5.000625 L5.39917586,5.000625 C5.73003122,5.000625 5.99855151,4.720625 5.99855151,4.375625 C5.99855151,4.030625 5.73003122,3.750625 5.39917586,3.750625 Z M5.39917586,11.250625 L0.604170656,11.250625 C0.273315297,11.250625 0.0047950052,11.530625 0.0047950052,11.875625 C0.0047950052,12.220625 0.273315297,12.500625 0.604170656,12.500625 L5.39917586,12.500625 C5.73003122,12.500625 5.99855151,12.220625 5.99855151,11.875625 C5.99855151,11.530625 5.73003122,11.250625 5.39917586,11.250625 Z" id="Shape" fill="#03A9F4" fill-rule="nonzero"></path>
            </g>
        </g>
    </g>
</svg>