<?xml version="1.0" encoding="UTF-8" standalone="no"?>
<svg width="20px" height="19px" viewBox="0 0 20 19" version="1.1" xmlns="http://www.w3.org/2000/svg" xmlns:xlink="http://www.w3.org/1999/xlink">
    <!-- Generator: Sketch 45.2 (43514) - http://www.bohemiancoding.com/sketch -->
    <title>单位组织</title>
    <desc>Created with Sketch.</desc>
    <defs></defs>
    <g id="Page-1" stroke="none" stroke-width="1" fill="none" fill-rule="evenodd">
        <g id="01申请人信息填写-方案一-copy" transform="translate(-19.000000, -118.000000)" stroke="#03A9F4" fill-rule="nonzero" fill="#C8EEFF">
            <g id="单位组织" transform="translate(20.000000, 119.000000)">
                <path d="M16.0046476,8.644618 C15.3344762,8.644618 14.7409524,8.97438295 14.3811809,9.47628371 L10.5038476,7.27934625 C11.8854857,6.70207064 12.8584381,5.35549305 12.8584381,3.79281099 C12.8584381,1.70714116 11.1251047,0.00612233093 9,0.00612233093 C6.87489525,0.00612233093 5.14156191,1.70714116 5.14156191,3.79281099 C5.14156191,5.35549305 6.11451429,6.70207064 7.49615237,7.27934625 L3.6191238,9.47613416 C3.2592,8.97438297 2.66582857,8.64446845 1.99535237,8.64446845 C0.901561911,8.644618 0.00952380357,9.52010282 0.00952380357,10.5937457 C0.00952380357,11.6667904 0.901561893,12.5421256 1.99535237,12.5421256 C3.08914286,12.5421256 3.98118095,11.6667904 3.98118095,10.5937457 C3.98118095,10.329186 3.92662857,10.0771887 3.82864762,9.8468767 L8.04015237,7.46060481 C8.28,7.52132342 8.52883809,7.55945951 8.7840762,7.57336798 L8.7840762,11.3246125 C7.29089525,11.433936 6.10643811,12.6610205 6.10643809,14.1537116 C6.10643809,15.7177397 7.40624761,16.9935786 9,16.9935786 C10.5940571,16.9935786 11.8938667,15.7177397 11.8938667,14.1537116 C11.8938667,12.6610205 10.7094095,11.4337864 9.2159238,11.3246125 L9.2159238,7.57336798 C9.4671225,7.55987216 9.71635345,7.52210174 9.96,7.46060481 L14.1715048,9.84702625 C14.0736762,10.0773383 14.0191238,10.3294851 14.0191238,10.5937457 C14.0191238,11.6667904 14.9111619,12.5421256 16.0046476,12.5421256 C17.0984381,12.5421256 17.9904762,11.6667904 17.9904762,10.5937457 C17.9904762,9.52010282 17.0984381,8.64461802 16.0046476,8.644618 Z" id="Shape"></path>
            </g>
        </g>
    </g>
</svg>