<?xml version="1.0" encoding="UTF-8" standalone="no"?>
<svg width="16px" height="18px" viewBox="0 0 16 18" version="1.1" xmlns="http://www.w3.org/2000/svg" xmlns:xlink="http://www.w3.org/1999/xlink">
    <!-- Generator: Sketch 45.2 (43514) - http://www.bohemiancoding.com/sketch -->
    <title>书籍</title>
    <desc>Created with Sketch.</desc>
    <defs></defs>
    <g id="Page-1" stroke="none" stroke-width="1" fill="none" fill-rule="evenodd">
        <g id="01申请人信息填写-方案一-copy" transform="translate(-21.000000, -618.000000)">
            <g id="书籍" transform="translate(21.000000, 618.000000)">
                <path d="M14.09806,0.0091007649 L1.81728396,0.0091007649 C0.823985905,0.0091007649 0.0112874921,0.75796317 0.0112874921,1.67323944 L0.0112874921,16.3176598 C0.0112874921,17.2329361 0.823985905,17.9817985 1.81728396,17.9817985 L14.1883598,17.9817985 C15.1816578,17.9817985 15.9943563,17.2329361 15.9943563,16.3176598 L15.9943563,1.5900325 C15.9040564,0.67475623 15.091358,0.0091007649 14.09806,0.0091007649 Z" id="Path" fill="#C8EEFF"></path>
                <path d="M14.09806,0.0091007649 L1.81728396,0.0091007649 C0.823985905,0.0091007649 0.0112874921,0.75796317 0.0112874921,1.67323944 L0.0112874921,16.3176598 C0.0112874921,17.2329361 0.823985905,17.9817985 1.81728396,17.9817985 L14.1883598,17.9817985 C15.1816578,17.9817985 15.9943563,17.2329361 15.9943563,16.3176598 L15.9943563,1.5900325 C15.9040564,0.67475623 15.091358,0.0091007649 14.09806,0.0091007649 Z M10.5763668,1.30331702 L12.3823633,1.30331702 L12.3823633,5.58699893 L11.4793651,4.75492958 L10.5763668,5.58699893 L10.5763668,1.30331702 Z M3.53298059,16.6731756 L1.72698413,16.6731756 C1.27548502,16.6731756 1.23490764,16.3542027 1.23490764,15.8549611 L1.23490764,2.20500142 C1.23490764,1.78896676 1.18518519,1.19344575 1.72698413,1.19344575 L3.53298059,1.19344575 L3.53298059,16.6731756 Z M14.8385356,15.6733355 C14.8385356,16.0893701 14.6398589,16.6927886 14.09806,16.6927886 L4.43597884,16.6927886 L4.43597884,1.23582801 L9.76366842,1.23582801 L9.76366842,7.66717226 L11.5696649,6.00303359 L13.3756614,7.66717226 L13.3756614,1.23582801 L14.2786596,1.23582801 C14.7301587,1.23582801 14.8385356,1.63608837 14.8385356,2.13532997 L14.8385356,15.6733355 Z" id="Shape" fill="#03A9F4" fill-rule="nonzero"></path>
            </g>
        </g>
    </g>
</svg>