<?xml version="1.0" encoding="UTF-8" standalone="no"?>
<svg width="18px" height="18px" viewBox="0 0 18 18" version="1.1" xmlns="http://www.w3.org/2000/svg" xmlns:xlink="http://www.w3.org/1999/xlink">
    <!-- Generator: Sketch 45.2 (43514) - http://www.bohemiancoding.com/sketch -->
    <title>附件</title>
    <desc>Created with Sketch.</desc>
    <defs>
        <path d="M14.9517991,2.55319149 L8.93849287,2.55319149 C8.55614392,2.55319149 8.20855397,2.33531915 8.03475899,2.00851064 L7.23530211,0.556028374 C7.06150713,0.229219864 6.71391718,0.0113475234 6.36632722,0.0113475234 L1.04820095,0.0113475234 C0.457298037,0.0113475234 0.00543108758,0.483404255 0.00543108758,1.10070923 L0.00543108758,14.8992908 C0.00543108758,15.5165957 0.45729802,15.9886525 1.04820095,15.9886525 L14.9517991,15.9886525 C15.542702,15.9886525 15.9945689,15.5165957 15.9945689,14.8992908 L15.9945689,3.64255319 C15.9945689,3.02524822 15.542702,2.55319149 14.9517991,2.55319149 Z M15.299389,14.8992908 C15.299389,15.1171631 15.160353,15.2624113 14.9517991,15.2624114 L1.04820095,15.2624114 C0.839646974,15.2624114 0.700610998,15.1171631 0.700610998,14.8992908 L0.700610998,1.10070923 C0.700610998,0.882836885 0.839646974,0.737588664 1.04820095,0.737588647 L6.36632722,0.737588647 C6.50536319,0.737588647 6.60964018,0.810212766 6.67915818,0.919148936 L7.47861507,2.3716312 C7.75668704,2.91631205 8.34758995,3.27943263 8.93849287,3.27943263 L14.9517991,3.27943263 C15.160353,3.27943263 15.299389,3.42468085 15.299389,3.64255319 L15.299389,14.8992908 Z" id="path-1"></path>
    </defs>
    <g id="Page-1" stroke="none" stroke-width="1" fill="none" fill-rule="evenodd">
        <g id="01申请人信息填写-方案一-copy" transform="translate(-20.000000, -568.000000)">
            <g id="附件" transform="translate(21.000000, 569.000000)">
                <path d="M14.9517991,2.55319149 L8.93849287,2.55319149 C8.55614392,2.55319149 8.20855397,2.33531915 8.03475899,2.00851064 L7.23530211,0.556028374 C7.06150713,0.229219864 6.71391718,0.0113475234 6.36632722,0.0113475234 L1.04820095,0.0113475234 C0.457298037,0.0113475234 0.00543108758,0.483404255 0.00543108758,1.10070923 L0.00543108758,14.8992908 C0.00543108758,15.5165957 0.45729802,15.9886525 1.04820095,15.9886525 L14.9517991,15.9886525 C15.542702,15.9886525 15.9945689,15.5165957 15.9945689,14.8992908 L15.9945689,3.64255319 C15.9945689,3.02524822 15.542702,2.55319149 14.9517991,2.55319149 Z" id="Path" fill="#C8EEFF"></path>
                <g id="Shape" fill-rule="nonzero">
                    <use fill="#03A9F4" fill-rule="evenodd" xlink:href="#path-1"></use>
                    <path stroke="#03A9F4" stroke-width="0.2" d="M14.9517991,2.45319149 C15.5989319,2.45319149 16.0945689,2.97097394 16.0945689,3.64255319 L16.0945689,14.8992908 C16.0945689,15.57087 15.5989319,16.0886525 14.9517991,16.0886525 L1.04820095,16.0886525 C0.401068056,16.0886525 -0.0945689124,15.57087 -0.0945689124,14.8992908 L-0.0945689124,1.10070923 C-0.0945689124,0.42912998 0.401068067,-0.0886524766 1.04820095,-0.0886524766 L6.36632722,-0.0886524766 C6.75164022,-0.0886524766 7.13276793,0.150241611 7.32290863,0.507809105 L8.12305063,1.96155762 C8.28197807,2.26040882 8.59832787,2.45319149 8.93849287,2.45319149 L14.9517991,2.45319149 Z M15.199389,14.8992908 L15.199389,3.64255319 C15.199389,3.47895513 15.1041231,3.37943263 14.9517991,3.37943263 L8.93849287,3.37943263 C8.30732072,3.37943263 7.68346443,2.9928127 7.39100855,2.41985047 L6.59486043,0.972943833 C6.53812553,0.884039036 6.46190203,0.837588647 6.36632722,0.837588647 L1.04820095,0.837588647 C0.895876939,0.837588659 0.800610998,0.937111167 0.800610998,1.10070923 L0.800610998,14.8992908 C0.800610998,15.0628888 0.895876936,15.1624114 1.04820095,15.1624114 L14.951799,15.1624114 C15.1041231,15.1624113 15.199389,15.0628888 15.199389,14.8992908 Z"></path>
                </g>
                <path d="M12.5186694,7.63687944 L3.48133062,7.63687944 C3.27277665,7.63687944 3.13374068,7.78212766 3.13374066,8 C3.13374064,8.21787234 3.27277664,8.36312056 3.48133062,8.36312056 L12.5186694,8.36312056 C12.7272233,8.36312056 12.8662593,8.21787234 12.8662593,8 C12.8662594,7.78212766 12.7272234,7.63687944 12.5186694,7.63687944 Z" id="Shape" stroke="#03A9F4" stroke-width="0.5" fill="#03A9F4" fill-rule="nonzero"></path>
            </g>
        </g>
    </g>
</svg>