<?xml version="1.0" encoding="UTF-8" standalone="no"?>
<svg width="16px" height="18px" viewBox="0 0 16 18" version="1.1" xmlns="http://www.w3.org/2000/svg" xmlns:xlink="http://www.w3.org/1999/xlink">
    <!-- Generator: Sketch 45.2 (43514) - http://www.bohemiancoding.com/sketch -->
    <title>生产计划</title>
    <desc>Created with Sketch.</desc>
    <defs></defs>
    <g id="Page-1" stroke="none" stroke-width="1" fill="none" fill-rule="evenodd">
        <g id="01申请人信息填写-方案一-copy" transform="translate(-21.000000, -68.000000)">
            <g id="生产计划" transform="translate(21.000000, 68.000000)">
                <rect id="Rectangle-5" fill="#C8EEFF" x="1" y="3" width="14" height="14"></rect>
                <path d="M4.50087293,9.4996443 L3.50116316,9.4996443 C3.25121191,9.4996443 3.00126065,9.74937124 3.00126065,9.99919339 C3.00126065,10.2490155 3.25121191,10.4988377 3.50116316,10.4988377 L4.50096819,10.4988377 C4.75091944,10.4988377 5.0008707,10.2490155 5.0008707,9.99919339 C5.0008707,9.74937124 4.75082419,9.4996443 4.50087293,9.4996443 Z M4.50087293,6.50187372 L3.50116316,6.50187372 C3.25121191,6.50187372 3.00126065,6.75169587 3.00126065,7.00151802 C3.00126065,7.25134017 3.25121191,7.50116231 3.50116316,7.50116231 L4.50096819,7.50116231 C4.75091944,7.50116231 5.0008707,7.25134017 5.0008707,7.00151802 C5.00077544,6.75169587 4.75082419,6.50187372 4.50087293,6.50187372 Z M12.4988368,9.4996443 L6.50038772,9.4996443 C6.25043647,9.4996443 6.00048521,9.74937124 6.00048521,9.99919339 C6.00048521,10.2490155 6.25043647,10.4988377 6.50038772,10.4988377 L12.4989321,10.4988377 C12.7488833,10.4988377 12.9988346,10.2490155 12.9988346,9.99919339 C12.9988346,9.74937124 12.7488833,9.4996443 12.4988368,9.4996443 L12.4988368,9.4996443 Z M4.50087293,12.4973197 L3.50116316,12.4973197 C3.25121191,12.4973197 3.00126065,12.7470466 3.00126065,12.9968688 C3.00126065,13.2466909 3.25121191,13.4965131 3.50116316,13.4965131 L4.50096819,13.4965131 C4.75091944,13.4965131 5.0008707,13.2466909 5.0008707,12.9968688 C5.0008707,12.7470466 4.75082419,12.4973197 4.50087293,12.4973197 L4.50087293,12.4973197 Z M12.4988368,12.4973197 L6.50038772,12.4973197 C6.25043647,12.4973197 6.00048521,12.7470466 6.00048521,12.9968688 C6.00048521,13.2466909 6.25043647,13.4965131 6.50038772,13.4965131 L12.4989321,13.4965131 C12.7488833,13.4965131 12.9988346,13.2466909 12.9988346,12.9968688 C12.9988346,12.7470466 12.7488833,12.4973197 12.4988368,12.4973197 L12.4988368,12.4973197 Z M12.4988368,6.50187372 L6.50038772,6.50187372 C6.25043647,6.50187372 6.00048521,6.75169587 6.00048521,7.00151802 C6.00048521,7.25134017 6.25043647,7.50116231 6.50038772,7.50116231 L12.4989321,7.50116231 C12.7488833,7.50116231 12.9988346,7.25134017 12.9988346,7.00151802 C12.9988346,6.75169587 12.7488833,6.50187372 12.4988368,6.50187372 L12.4988368,6.50187372 Z" id="Shape" fill="#03A9F4" fill-rule="nonzero"></path>
                <path d="M15.4981567,2.00536066 L12.9988346,2.00536066 L12.9988346,0.506522975 C12.9988346,0.256700826 12.7488833,0.00687867769 12.4989321,0.00687867769 C12.2489808,0.00687867769 11.9990296,0.256700826 11.9990296,0.506522975 L11.9990296,2.00536066 L4.00097042,2.00536066 L4.00097042,0.506522975 C4.00097042,0.256700826 3.75101916,0.00687867769 3.50106791,0.00687867769 C3.25111665,0.00687867769 3.0011654,0.256700826 3.0011654,0.506522975 L3.0011654,2.00536066 L0.501843349,2.00536066 C0.201978047,2.00536066 0.00194083721,2.20519934 0.00194083721,2.50500496 L0.00194083721,17.493477 C0.00194083721,17.7932826 0.201882791,17.9931213 0.501843349,17.9931213 L15.4981567,17.9931213 C15.798022,17.9931213 15.9980592,17.7932826 15.9980592,17.493477 L15.9980592,2.50500496 C15.9980592,2.20519934 15.798022,2.00536066 15.4981567,2.00536066 Z M14.9982541,16.9939279 L1.00174586,16.9939279 L1.00174586,3.00455405 L3.00126065,3.00455405 L3.00126065,3.50419835 C3.00126065,3.7540205 3.25121191,4.00384264 3.50116316,4.00384264 C3.75111442,4.00384264 4.00106567,3.7540205 4.00106567,3.50419835 L4.00106567,3.00455405 L11.9990296,3.00455405 L11.9990296,3.50419835 C11.9990296,3.7540205 12.2489808,4.00384264 12.4989321,4.00384264 C12.7488833,4.00384264 12.9988346,3.7540205 12.9988346,3.50419835 L12.9988346,3.00455405 L14.9982541,3.00455405 L14.9982541,16.9939279 Z" id="Shape" fill="#03A9F4" fill-rule="nonzero"></path>
            </g>
        </g>
    </g>
</svg>