<?xml version="1.0" encoding="UTF-8" standalone="no"?>
<svg width="16px" height="18px" viewBox="0 0 16 18" version="1.1" xmlns="http://www.w3.org/2000/svg" xmlns:xlink="http://www.w3.org/1999/xlink">
    <!-- Generator: Sketch 45.2 (43514) - http://www.bohemiancoding.com/sketch -->
    <title>报告</title>
    <desc>Created with Sketch.</desc>
    <defs></defs>
    <g id="Page-1" stroke="none" stroke-width="1" fill="none" fill-rule="evenodd">
        <g id="01申请人信息填写-方案一-copy" transform="translate(-21.000000, -668.000000)">
            <g id="报告" transform="translate(21.000000, 668.000000)">
                <path d="M15.8221299,5.3464712 L15.8478961,5.20850262 L10.3771429,0.0177172775 L8.44301299,0.0177172775 C5.19979221,0.0177172775 1.79449351,0.0177172775 1.79449351,0.0177172775 C0.815376623,0.0177172775 0.0216103896,0.717361257 0.0216103896,1.5798534 L0.0216103896,16.4201466 C0.0216103896,17.2833927 0.815376623,17.9822827 1.79449351,17.9822827 L14.2055065,17.9822827 C15.1846234,17.9822827 15.9783896,17.2826387 15.9783896,16.4201466 L15.9783896,5.48519372 L15.8221299,5.3464712 Z" id="Path" fill="#C8EEFF"></path>
                <path d="M7.55698701,8.21893194 L3.12436364,8.21893194 L3.12436364,9 L7.55698701,9 L7.55698701,8.21893194 Z M3.12436364,13.6856545 L12.8756364,13.6856545 L12.8756364,12.9045864 L3.12436364,12.9045864 L3.12436364,13.6856545 Z M15.8221299,5.3464712 L15.8478961,5.20850262 L10.3771429,0.0177172775 L8.44301299,0.0177172775 C5.19979221,0.0177172775 1.79449351,0.0177172775 1.79449351,0.0177172775 C0.815376623,0.0177172775 0.0216103896,0.717361257 0.0216103896,1.5798534 L0.0216103896,16.4201466 C0.0216103896,17.2833927 0.815376623,17.9822827 1.79449351,17.9822827 L14.2055065,17.9822827 C15.1846234,17.9822827 15.9783896,17.2826387 15.9783896,16.4201466 L15.9783896,5.48519372 L15.8221299,5.3464712 Z M10.6597403,1.4471623 L14.5396364,5.09390576 L11.5457662,5.09390576 C11.0562078,5.09390576 10.6597403,4.74408377 10.6597403,4.3128377 L10.6597403,1.4471623 Z M15.0915325,16.4193927 C15.0915325,16.8506387 14.6942338,17.2004607 14.2055065,17.2004607 L1.79449351,17.2004607 C1.30493506,17.2004607 0.907636364,16.8506387 0.907636364,16.4193927 L0.907636364,1.5798534 C0.907636364,1.14860733 1.30576623,0.79878534 1.79449351,0.79878534 L9.77288312,0.79878534 L9.77288312,4.31359162 C9.77288312,5.17608377 10.5666494,5.87572775 11.5457662,5.87572775 L15.0923636,5.87572775 L15.0923636,16.4193927 L15.0915325,16.4193927 Z M3.12436364,11.3424503 L12.8756364,11.3424503 L12.8756364,10.5621361 L3.12436364,10.5621361 L3.12436364,11.3424503 Z M7.55698701,5.87572775 L3.12436364,5.87572775 L3.12436364,6.65679581 L7.55698701,6.65679581 L7.55698701,5.87572775 Z" id="Shape" fill="#03A9F4" fill-rule="nonzero"></path>
            </g>
        </g>
    </g>
</svg>