<?xml version="1.0" encoding="UTF-8" standalone="no"?>
<svg width="20px" height="20px" viewBox="0 0 20 20" version="1.1" xmlns="http://www.w3.org/2000/svg" xmlns:xlink="http://www.w3.org/1999/xlink">
    <!-- Generator: Sketch 45.2 (43514) - http://www.bohemiancoding.com/sketch -->
    <title>Drgs平台软件系统2-8</title>
    <desc>Created with Sketch.</desc>
    <defs></defs>
    <g id="Page-1" stroke="none" stroke-width="1" fill="none" fill-rule="evenodd" opacity="0.699999988">
        <g id="01" transform="translate(-1190.000000, -17.000000)" fill-rule="nonzero" fill="#FFFFFF">
            <g id="Drgs平台软件系统2-8" transform="translate(1190.000000, 17.000000)">
                <path d="M19.6658596,8.99079087 L19.6542181,8.99079087 C19.6147523,8.60294447 19.3079807,8.29348589 18.9212857,8.25392224 L18.4689957,8.25392224 L18.4689957,8.24992448 C17.9882097,8.24992448 17.5667523,7.96854662 17.3657766,7.56045534 C17.318763,7.46169493 17.2789454,7.35429883 17.2588289,7.2393237 C17.1686396,6.98596204 17.0664889,6.73653375 16.952153,6.49852591 C16.89337,6.41137472 16.849107,6.32060941 16.8144702,6.22088988 C16.7665291,6.0903392 16.743406,5.9520488 16.743406,5.80899293 C16.743406,5.46867163 16.8817603,5.15921374 17.1010934,4.93386758 L17.3532721,4.67954609 C17.3571419,4.67548437 17.3619073,4.67551636 17.3657771,4.67180645 C17.369583,4.6679686 17.369583,4.66406681 17.3733568,4.66026095 C17.6650971,4.35854206 17.6802566,3.88754589 17.4207862,3.56654196 L17.4244642,3.56260816 C17.2319965,3.33259333 17.0311808,3.11105353 16.8224023,2.89632587 C16.6047966,2.67865627 16.3808263,2.47272358 16.1450223,2.2744029 L16.1404169,2.2783367 C15.8525146,2.04035833 15.4391147,2.03258635 15.1398256,2.25044835 L14.9591271,2.4331619 L14.7896864,2.59943691 L14.7811791,2.59172926 C14.423204,2.95248702 13.8991427,3.04341158 13.4537674,2.86543195 C13.3951123,2.84138146 13.3363295,2.81326922 13.2805525,2.77741704 C12.9976072,2.63922277 12.7051955,2.52037743 12.4060025,2.41781068 C12.3511533,2.40517778 12.299374,2.38589256 12.2493546,2.36552004 C12.1068425,2.31038301 11.9692558,2.21948994 11.8510181,2.10035691 C11.6500431,1.89823059 11.5354834,1.64406907 11.5008788,1.37900138 C11.4883419,1.27643461 11.4883419,1.172941 11.5008788,1.06957507 L11.5008788,0.855743408 C11.5008788,0.451586159 11.2084671,0.111044544 10.8264731,0.0434001443 L10.6852084,0.031918564 C10.4090437,0.0116739274 10.1367801,3.24543312e-05 9.86176535,3.24543312e-05 C9.58649592,3.24543312e-05 9.31340084,0.0115779569 9.04216019,0.0357564337 C8.99514659,0.0396902352 8.94797302,0.0434001637 8.8960024,0.0474299162 C8.51512814,0.115167908 8.22262029,0.451714855 8.22262029,0.859674947 L8.22262029,1.22820399 C8.22262029,1.75910626 7.89182996,2.21171755 7.4233274,2.38969368 C7.39550303,2.40136716 7.36480023,2.41396807 7.33300974,2.4216118 C7.00602508,2.53191757 6.68751613,2.66732986 6.37981373,2.81719789 L6.375784,2.81719789 C6.3518614,2.82983079 6.32771501,2.84137629 6.30078579,2.85295386 C6.14308263,2.92449795 5.97376955,2.96418719 5.7889132,2.96418719 C5.45041543,2.96418719 5.14258815,2.82586453 4.92140057,2.60336559 L4.91749876,2.60336559 L4.65777258,2.34226423 C4.37489114,2.0569846 3.93354035,2.02506594 3.61413612,2.24654188 C3.57857205,2.27842799 3.54006547,2.30654025 3.50347813,2.33845856 L3.49970424,2.3421365 C3.29194871,2.52024453 3.09007778,2.70676375 2.89754627,2.90115108 C2.70427875,3.09461084 2.51849484,3.29676876 2.34160203,3.5066355 C2.3107713,3.54226349 2.27891718,3.58204908 2.24728717,3.61777341 C2.02309309,3.93890505 2.05472338,4.38284767 2.34160203,4.67193436 L2.60212805,4.93409097 C2.9726399,5.31026359 3.05924732,5.86531185 2.85337919,6.32079772 C2.84186568,6.34788648 2.82645032,6.37587082 2.81103495,6.40385489 C2.6608154,6.70867567 2.52620298,7.02967963 2.41663251,7.3585524 C2.40889287,7.39427638 2.39334961,7.42619442 2.38186803,7.46191832 C2.32228545,7.61664727 2.22793824,7.7665153 2.10109779,7.88945466 C1.86148814,8.13114325 1.54598499,8.24998859 1.23147325,8.24998859 L1.23147325,8.25405031 L0.863999476,8.25405031 C0.463008711,8.25405031 0.124513749,8.54790107 0.0580200276,8.9318457 C0.0539583042,8.97921109 0.0492569133,9.02651278 0.045451053,9.07880336 C0.0253343383,9.34371036 0.0137248361,9.63279635 0.0137248361,9.90272355 L0.0137248361,9.91820289 C0.0137248361,10.1919372 0.0252383486,10.4617058 0.045451053,10.7305462 L0.0580200276,10.8735059 C0.124382752,11.2576421 0.458979229,11.5516212 0.860063315,11.5516212 L1.22760094,11.5516212 C1.75095503,11.5516212 2.1963381,11.8802365 2.37336002,12.3433996 C2.38589701,12.3756376 2.39737853,12.4073318 2.40508624,12.4344842 C2.40902004,12.4344842 2.40902004,12.4380982 2.40902004,12.4380982 C2.51862278,12.7681209 2.65320293,13.0879735 2.80342248,13.3975247 C2.80722834,13.3975247 2.80722834,13.4014585 2.80722834,13.4014585 C2.81886983,13.4254131 2.83035135,13.4488879 2.84196084,13.476872 C2.91318496,13.6356312 2.95261883,13.8095491 2.95261883,13.9921349 C2.95261883,14.3328077 2.81493605,14.6421379 2.59374847,14.8676462 L2.3455354,15.1172022 C2.34172954,15.121008 2.33782775,15.121008 2.33782775,15.1258693 C2.33389395,15.1294513 2.33021601,15.133513 2.33021601,15.1375747 C2.05897606,15.4187926 2.02712194,15.8552186 2.23957911,16.1711357 L2.34553546,16.302614 C2.51875032,16.51248 2.70440582,16.710673 2.8977379,16.9041327 C3.09020556,17.0986793 3.28827085,17.2854231 3.49602638,17.459341 C3.54028958,17.4951609 3.57882815,17.5306612 3.62299523,17.5666409 C3.90574827,17.761156 4.28473585,17.7522649 4.56368113,17.5463003 L4.74460343,17.364642 L4.91404421,17.1942737 L4.92162394,17.2019174 C5.29674131,16.8298065 5.84791935,16.7419193 6.30104073,16.9523614 C6.32403582,16.9602291 6.34805432,16.9720304 6.36829902,16.9836079 C6.36829902,16.9836079 6.37223282,16.9836079 6.37223282,16.9883412 C6.67900485,17.1422387 7.00221545,17.2773311 7.33325905,17.387733 C7.36121139,17.396528 7.38814027,17.4081055 7.41596469,17.4156213 C7.57744193,17.4758755 7.7266385,17.5703503 7.8575407,17.7009971 C8.09715035,17.9429411 8.21535582,18.2600117 8.21535582,18.5770837 L8.21928962,18.5770837 L8.21928962,18.9369454 C8.21928962,19.3614753 8.54253247,19.714621 8.95606003,19.7581152 L8.95606003,19.762145 C9.25522005,19.7890099 9.55438007,19.8052888 9.85827541,19.8052888 C10.1612734,19.8052888 10.464239,19.7938712 10.7606802,19.762145 L10.7606802,19.7581152 C11.1740801,19.7146196 11.4972893,19.3614739 11.4972893,18.9369454 L11.4972893,18.5686718 C11.4972893,18.07327 11.7878466,17.6459898 12.2052787,17.4478908 C12.29179,17.4082331 12.3784936,17.3760913 12.4737683,17.3567417 C12.7420978,17.2611471 13.0056297,17.1500099 13.2614562,17.0271989 C13.3365498,16.9798974 13.4154498,16.9399839 13.4982831,16.9083213 C13.6318403,16.857086 13.7771028,16.8299335 13.9269708,16.8299335 C14.2388276,16.8299335 14.5215814,16.9490349 14.7429626,17.1423663 C14.781533,17.1742844 14.8141867,17.2100083 14.8487912,17.2499216 L15.057602,17.4595639 C15.345249,17.7487775 15.7982104,17.7765383 16.116499,17.5465228 C16.116531,17.5465228 16.1212323,17.5465228 16.1212323,17.5427169 C16.1490567,17.5187623 16.1722757,17.4994772 16.2001323,17.4760983 C16.4167151,17.2931609 16.6213357,17.1027077 16.8187296,16.9008052 C17.0148436,16.7023568 17.208335,16.4923624 17.389961,16.2748527 C17.4129561,16.2469644 17.436303,16.2188841 17.4614089,16.1878938 C17.6843239,15.8783398 17.6653265,15.4462961 17.4053763,15.1529225 L17.3458898,15.0940755 L17.1178255,14.863933 C16.7513431,14.4955001 16.6648318,13.9529542 16.8573956,13.501622 C16.8775123,13.4569751 16.897629,13.4185648 16.9206241,13.3785872 C17.0667181,13.0806747 17.1928871,12.7722713 17.3033212,12.4552036 C17.3149627,12.411612 17.3265402,12.3720503 17.3458893,12.3323926 C17.4053759,12.1776636 17.4996591,12.0345116 17.6220863,11.907895 C17.8624951,11.6657272 18.1769431,11.5470734 18.4922231,11.5470734 L18.8466163,11.5470734 L18.8466163,11.5431716 C19.2841951,11.5431716 19.6431588,11.1989169 19.6661864,10.7627105 L19.6777959,10.7627105 C19.7016225,10.4772064 19.7142555,10.188441 19.7142555,9.89922525 C19.7101618,9.59705874 19.6935631,9.29246177 19.6658666,8.99077236 L19.6658596,8.99079087 Z M9.86356046,15.4041202 C6.8412568,15.4041202 4.39107842,12.9409897 4.39107842,9.90259756 C4.39111041,6.86420546 6.8412568,4.40098374 9.86356046,4.40098374 C12.8859904,4.40098374 15.3360425,6.86407918 15.3360425,9.90259756 C15.3360425,12.941116 12.8859904,15.4041202 9.86356046,15.4041202 Z M9.86356046,6.72899383 C8.05043646,6.72899383 6.70577855,8.07975593 6.70577855,9.9025765 C6.70577855,11.7253971 8.05030316,13.0759347 9.86356046,13.0759347 C11.6768178,13.0759347 13.0201917,11.7253971 13.0201917,9.9025765 C13.0202237,8.07975593 11.6767195,6.72902891 9.86356046,6.72899383 L9.86356046,6.72899383 Z" id="Shape"></path>
            </g>
        </g>
    </g>
</svg>