<?xml version="1.0" encoding="UTF-8" standalone="no"?>
<svg width="20px" height="20px" viewBox="0 0 20 20" version="1.1" xmlns="http://www.w3.org/2000/svg" xmlns:xlink="http://www.w3.org/1999/xlink">
    <!-- Generator: Sketch 45.2 (43514) - http://www.bohemiancoding.com/sketch -->
    <title>系统</title>
    <desc>Created with Sketch.</desc>
    <defs></defs>
    <g id="Page-1" stroke="none" stroke-width="1" fill="none" fill-rule="evenodd" opacity="0.699999988">
        <g id="02" transform="translate(-1296.000000, -17.000000)" fill-rule="nonzero" fill="#FFFFFF">
            <g id="系统" transform="translate(1296.000000, 17.000000)">
                <path d="M0,2.14873242 C0,0.962042926 0.962342722,0 2.14873242,0 L6.74519304,0 C7.93188254,0 8.89392546,0.962342722 8.89392546,2.14873242 L8.89392546,8.59413022 C8.89387031,8.75965212 8.75970208,8.89382034 8.59418019,8.8938755 L2.14873242,8.8938755 C0.962042926,8.89392546 0,7.93158274 0,6.74519304 L0,2.14873242 Z M1.19918096,2.34829612 C1.19918096,1.71367956 1.71362959,1.19918096 2.34829612,1.19918096 L6.54562935,1.19918096 C7.1802459,1.19918096 7.6947445,1.71362959 7.6947445,2.34829612 L7.6947445,7.6947445 L2.34829612,7.6947445 C1.71367956,7.6947445 1.19918096,7.18029587 1.19918096,6.54562935 L1.19918096,2.34829612 Z M19.9863494,2.14873242 C19.9863494,0.962042926 19.0240066,0 17.8376169,0 L13.2411563,0 C12.0544668,0 11.0924239,0.962342722 11.0924239,2.14873242 L11.0924239,8.59413022 C11.092479,8.75965212 11.2266473,8.89382034 11.3921692,8.8938755 L17.8376169,8.8938755 C19.0243064,8.8938755 19.9863494,7.93153278 19.9863494,6.74514308 L19.9863494,2.14873242 Z M18.7871684,2.34829612 C18.7871684,1.71367956 18.2727198,1.19918096 17.6380532,1.19918096 L13.44072,1.19918096 C12.8061035,1.19918096 12.2916049,1.71362959 12.2916049,2.34829612 L12.2916049,7.6947445 L17.6380532,7.6947445 C18.2726698,7.6947445 18.7871684,7.18029587 18.7871684,6.54562935 L18.7871684,2.34829612 Z M0,17.8376169 C0,19.0243064 0.962342722,19.9863494 2.14873242,19.9863494 L6.74519304,19.9863494 C7.93188254,19.9863494 8.89392546,19.0240066 8.89392546,17.8376169 L8.89392546,11.3922191 C8.89387031,11.2266972 8.75970208,11.092529 8.59418019,11.0924739 L2.14873242,11.0924739 C0.962042926,11.0924239 0,12.0547666 0,13.2411563 L0,17.8376169 Z M1.19918096,17.6380532 C1.19918096,18.2726698 1.71362959,18.7871684 2.34829612,18.7871684 L6.54562935,18.7871684 C7.1802459,18.7871684 7.6947445,18.2727198 7.6947445,17.6380532 L7.6947445,12.2916049 L2.34829612,12.2916049 C1.71367956,12.2916049 1.19918096,12.8060535 1.19918096,13.44072 L1.19918096,17.6380532 Z M19.9863494,17.8376169 C19.9863494,19.0243064 19.0240066,19.9863494 17.8376169,19.9863494 L13.2411563,19.9863494 C12.0544668,19.9863494 11.0924239,19.0240066 11.0924239,17.8376169 L11.0924239,11.3922191 C11.092479,11.2266972 11.2266473,11.092529 11.3921692,11.0924739 L17.8376169,11.0924739 C19.0243064,11.0924739 19.9863494,12.0548166 19.9863494,13.2412063 L19.9863494,17.8376669 L19.9863494,17.8376169 Z M18.7871684,17.6380532 C18.7871684,18.2726698 18.2727198,18.7871684 17.6380532,18.7871684 L13.44072,18.7871684 C12.8061035,18.7871684 12.2916049,18.2727198 12.2916049,17.6380532 L12.2916049,12.2916049 L17.6380532,12.2916049 C18.2726698,12.2916049 18.7871684,12.8060535 18.7871684,13.44072 L18.7871684,17.6380532 Z" id="Shape"></path>
            </g>
        </g>
    </g>
</svg>