<?xml version="1.0" encoding="UTF-8" standalone="no"?>
<svg width="18px" height="18px" viewBox="0 0 18 18" version="1.1" xmlns="http://www.w3.org/2000/svg" xmlns:xlink="http://www.w3.org/1999/xlink">
    <!-- Generator: Sketch 45.2 (43514) - http://www.bohemiancoding.com/sketch -->
    <title>流量 (1)</title>
    <desc>Created with Sketch.</desc>
    <defs></defs>
    <g id="Page-1" stroke="none" stroke-width="1" fill="none" fill-rule="evenodd">
        <g id="01申请人信息填写-方案一-copy" transform="translate(-20.000000, -368.000000)">
            <g id="流量-(1)" transform="translate(20.000000, 368.000000)">
                <circle id="Oval-2" fill="#C8EEFF" cx="9" cy="9" r="8"></circle>
                <path d="M17.2928571,5.49802616 C16.839,4.42701546 16.191,3.46644471 15.363,2.64071344 C14.5362857,1.81369798 13.5745714,1.16775268 12.5022857,0.713151011 C11.3927143,0.245707491 10.2137143,0.0068489893 9,0.0068489893 C7.78628571,0.0068489893 6.60728571,0.245707491 5.49642857,0.713151011 C4.42414286,1.16775268 3.46242857,1.81369798 2.637,2.64071344 C1.809,3.46644471 1.161,4.42701546 0.707142857,5.49802616 C0.239142857,6.60627824 0,7.78387634 0,8.99614744 C0,10.2084185 0.239142857,11.3860166 0.707142857,12.4955529 C1.16228571,13.5665636 1.809,14.5271344 2.637,15.3541498 C3.46371429,16.1798811 4.42542857,16.8271106 5.49771429,17.2804281 C6.60728571,17.7478716 7.78628571,17.9867301 9.00128571,17.9867301 C10.2162857,17.9867301 11.394,17.7478716 12.5048571,17.2804281 C13.5771429,16.8271106 14.5388571,16.1798811 15.3655714,15.3541498 C16.1935714,14.5271344 16.8415714,13.5665636 17.2954286,12.4955529 C17.7608571,11.3873008 18,10.2097027 18,8.99614744 C18,7.78259215 17.7608571,6.60627824 17.2928571,5.49802616 L17.2928571,5.49802616 Z M16.3092857,12.080761 C15.9081429,13.0233532 15.336,13.8721998 14.6095714,14.5990488 C13.8818571,15.3246136 13.0307143,15.8973603 12.0882857,16.296742 C11.1098571,16.7089655 10.071,16.9182878 9,16.9182878 C7.929,16.9182878 6.89014286,16.7089655 5.913,16.296742 C4.97057143,15.8960761 4.11942857,15.3246136 3.39171429,14.5990488 C2.66528571,13.8721998 2.09185714,13.022069 1.692,12.080761 C1.278,11.1034958 1.06842857,10.065874 1.06842857,8.99614744 C1.06842857,7.92642093 1.278,6.88879905 1.69071429,5.91281807 C2.09185714,4.97151011 2.664,4.12137931 3.39171429,3.39453032 C4.11942857,2.66896552 4.97057143,2.09621879 5.913,1.6968371 C6.89014286,1.28332937 7.929,1.07400713 9,1.07400713 C10.071,1.07400713 11.1098571,1.28332937 12.087,1.69555291 C13.0294286,2.09621879 13.8805714,2.66768133 14.6082857,3.39324614 C15.3347143,4.12009512 15.9081429,4.97022592 16.308,5.91153389 C16.7207143,6.88879905 16.9302857,7.92513674 16.9302857,8.99486326 C16.9302857,10.0645898 16.722,11.1034958 16.3092857,12.080761 L16.3092857,12.080761 L16.3092857,12.080761 Z" id="Shape" fill="#03A9F4" fill-rule="nonzero"></path>
                <path d="M14.5272857,8.54026159 L12.6154286,8.54026159 L11.9134286,6.31219976 C11.88,6.1850654 11.7462857,6.10801427 11.619,6.14268728 L11.2088571,6.14782402 C11.0841429,6.1144352 10.9864286,6.21845422 10.953,6.34173603 L9.93214286,11.2383353 L8.55,4.42187872 C8.51785714,4.29731272 8.38928571,4.22282996 8.26585714,4.25750297 C8.26585714,4.25750297 7.91742857,4.2639239 7.75414286,4.2639239 C7.59085714,4.2639239 7.53685714,4.42829964 7.53685714,4.42829964 L6.50571429,9.8141736 L6.138,8.6725327 C6.10328571,8.54282996 5.98114286,8.52613555 5.83842857,8.53255648 L3.47271429,8.53897741 C3.339,8.53897741 3.23228571,8.64684899 3.23228571,8.78040428 L3.23228571,9.26068966 C3.23228571,9.39424495 3.339,9.50083234 3.47271429,9.50083234 L5.37557143,9.50083234 L6.08014286,11.6967895 C6.11485714,11.8252081 6.24985714,11.900975 6.37971429,11.866302 L6.75385714,11.8611653 C6.87985714,11.8945541 7.02642857,11.7905351 7.05985714,11.6672533 L8.11542857,6.70516052 L9.50914286,13.5742687 C9.54257143,13.6988347 9.66985714,13.7720333 9.79457143,13.7386445 C9.79457143,13.7386445 10.0491429,13.7347919 10.1982857,13.7347919 C10.3487143,13.7347919 10.3718571,13.4561237 10.3718571,13.4561237 L11.4942857,8.18967895 L11.8517143,9.32875149 C11.8864286,9.45717004 12.0188571,9.53165279 12.1461429,9.49826397 L14.5247143,9.50211653 C14.6584286,9.50211653 14.7651429,9.39552913 14.7651429,9.26197384 L14.7651429,8.7791201 C14.7664286,8.64684899 14.6597143,8.54026159 14.5272857,8.54026159 L14.5272857,8.54026159 L14.5272857,8.54026159 Z" id="Shape" fill="#03A9F4" fill-rule="nonzero"></path>
            </g>
        </g>
    </g>
</svg>