<?xml version="1.0" encoding="UTF-8" standalone="no"?>
<svg width="18px" height="20px" viewBox="0 0 18 20" version="1.1" xmlns="http://www.w3.org/2000/svg" xmlns:xlink="http://www.w3.org/1999/xlink">
    <!-- Generator: Sketch 45.2 (43514) - http://www.bohemiancoding.com/sketch -->
    <title>Shape</title>
    <desc>Created with Sketch.</desc>
    <defs></defs>
    <g id="Page-1" stroke="none" stroke-width="1" fill="none" fill-rule="evenodd" opacity="0.699999988">
        <g id="01" transform="translate(-1244.000000, -17.000000)" fill-rule="nonzero" fill="#FFFFFF">
            <g id="用户" transform="translate(1244.000000, 17.000000)">
                <path d="M17.2700566,18.2776503 C17.2739483,18.2636977 17.2863972,18.2497672 17.2863972,18.2357926 C17.2863972,18.210961 17.2700566,18.1865274 17.2575855,18.162536 C17.213583,17.8150042 17.1344447,17.4714304 16.9944546,17.1487302 C16.7245575,16.4947061 16.2183068,15.9649506 15.6368759,15.5755611 C14.487038,14.7802423 13.0852136,14.4872383 11.8782829,13.8004887 C11.4760685,13.5558654 11.0692106,13.2393123 10.9113763,12.7771306 C10.8372574,12.1440022 10.8636147,11.5047931 10.8651183,10.8685911 C11.0796916,10.7059806 11.2268459,10.4761944 11.3558907,10.2446392 C11.6244832,9.75105864 11.8115273,9.21212672 11.8887197,8.6553063 C12.0844979,8.61736239 12.2569703,8.49877656 12.3668662,8.33309254 C12.574828,8.02396898 12.6496103,7.64676308 12.6847018,7.28224935 C12.7162996,6.96134019 12.5885374,6.62948567 12.3319516,6.42981574 C12.6500304,5.37242746 12.8715247,4.26055559 12.7566316,3.15259752 C12.6899423,2.49333295 12.4594927,1.81876699 11.959566,1.36052117 C11.6162133,1.04264133 11.1588078,0.878704132 10.7033923,0.809383506 C10.5913295,0.641952628 10.4509193,0.491968024 10.2773634,0.388595151 C9.80817224,0.0999471679 9.24350211,0.026690623 8.70284548,0.0153693766 C7.74641987,0.0302064127 6.74070696,0.191092177 5.95082774,0.767083569 C5.55599869,1.05049106 5.24075015,1.43943836 5.03146157,1.87723071 C4.77396916,2.41266897 4.66562115,3.00960026 4.64096645,3.59998643 C4.60304464,4.55535069 4.77158111,5.50589453 5.00247295,6.42983786 C4.76003872,6.61862876 4.63008742,6.92733219 4.64667131,7.23254196 C4.66562115,7.53516464 4.72603071,7.83864966 4.84746895,8.11772323 C4.9549325,8.37408792 5.16141288,8.60604114 5.44570483,8.65665515 C5.51874024,9.18249688 5.69643101,9.69135668 5.94556514,10.1596413 C6.09119374,10.4199419 6.24949241,10.6863675 6.49303223,10.8682153 C6.49347446,11.5048152 6.51941165,12.1444666 6.44509375,12.7771527 C6.24949239,13.3370245 5.71712768,13.6758443 5.22003138,13.9422256 C4.13343334,14.4898696 2.93634244,14.8029512 1.89748387,15.445654 C1.44642441,15.7338598 1.01756523,16.0752887 0.701454342,16.5113121 C0.361130975,16.9747984 0.169907765,17.5281252 0.0903493728,18.0949623 C0.044776868,18.1412202 0.0131569309,18.1878541 0.0131569309,18.2358147 C0.0131569309,18.274621 0.0290553419,18.3129629 0.059613904,18.3504867 C0.0572258266,18.378414 0.0513219595,18.4054125 0.0495751281,18.4333398 C0.085329974,18.4333398 0.121305937,18.4333398 0.157060783,18.4333398 C0.882174415,18.9522162 4.40467931,19.3468463 8.64988763,19.3468463 C12.8979042,19.3468463 16.4216915,18.9522162 17.1435547,18.4320573 C17.191051,18.4320573 17.2388346,18.4320573 17.2863751,18.4320573 C17.2822402,18.3805809 17.2752529,18.3295247 17.2700566,18.2776503 Z" id="Shape"></path>
            </g>
        </g>
    </g>
</svg>