<?xml version="1.0" encoding="UTF-8" standalone="no"?>
<svg width="18px" height="16px" viewBox="0 0 18 16" version="1.1" xmlns="http://www.w3.org/2000/svg" xmlns:xlink="http://www.w3.org/1999/xlink">
    <!-- Generator: Sketch 45.2 (43514) - http://www.bohemiancoding.com/sketch -->
    <title>无线网</title>
    <desc>Created with Sketch.</desc>
    <defs></defs>
    <g id="Page-1" stroke="none" stroke-width="1" fill="none" fill-rule="evenodd">
        <g id="01申请人信息填写-方案一-copy" transform="translate(-20.000000, -419.000000)" fill-rule="nonzero" fill="#03A9F4">
            <g id="无线网" transform="translate(20.000000, 419.000000)">
                <path d="M17.3792411,4.10731707 C17.2446429,4.10731707 17.1080357,4.06439024 16.9955357,3.97268293 C15.8926339,3.08878049 14.6551339,2.40195122 13.3171875,1.92585366 C11.9310268,1.43414634 10.4725446,1.18439024 8.98191964,1.18439024 C7.4953125,1.18439024 6.04084821,1.43219512 4.65870536,1.92 C3.32276786,2.39219512 2.08727679,3.07707317 0.986383929,3.95512195 C0.729241071,4.16 0.349553571,4.12487805 0.138616071,3.87512195 C-0.0723214286,3.62536585 -0.0361607143,3.25658537 0.220982143,3.05170732 C1.42834821,2.0897561 2.78236607,1.33853659 4.24486607,0.821463415 C5.75959821,0.284878049 7.35267857,0.0136585366 8.97991071,0.0136585366 C10.6131696,0.0136585366 12.2102679,0.286829268 13.7290179,0.825365854 C15.1955357,1.34634146 16.5535714,2.10146341 17.7609375,3.06731707 C18.0180804,3.27219512 18.0542411,3.64097561 17.8433036,3.89073171 C17.7247768,4.03512195 17.5520089,4.10731707 17.3792411,4.10731707 L17.3792411,4.10731707 Z" id="Shape"></path>
                <path d="M15.1292411,6.88585366 C14.9926339,6.88585366 14.8540179,6.84097561 14.7415179,6.74731707 C13.9540179,6.10146341 13.0660714,5.59804878 12.1037946,5.25073171 C11.1073661,4.8897561 10.0566964,4.70829268 8.98191964,4.70829268 C7.91116071,4.70829268 6.8625,4.8897561 5.87008929,5.24682927 C4.90982143,5.59219512 4.02388393,6.09365854 3.23839286,6.73365854 C2.98325893,6.94243902 2.60357143,6.90926829 2.38861607,6.66146341 C2.17366071,6.41365854 2.2078125,6.04487805 2.46294643,5.83609756 C3.35491071,5.10829268 4.36138393,4.5404878 5.45022321,4.14634146 C6.57924107,3.7404878 7.76651786,3.53365854 8.98191964,3.53365854 C10.2013393,3.53365854 11.3926339,3.7404878 12.5236607,4.1502439 C13.6165179,4.54439024 14.625,5.11609756 15.5189732,5.8497561 C15.7741071,6.05853659 15.80625,6.42731707 15.5912946,6.67512195 C15.4707589,6.81560976 15.3,6.88585366 15.1292411,6.88585366 L15.1292411,6.88585366 Z M12.8209821,9.6195122 C12.6803571,9.6195122 12.5397321,9.57268293 12.4272321,9.47707317 C11.4729911,8.67512195 10.2495536,8.23219512 8.98191964,8.23219512 C7.72232143,8.23219512 6.50491071,8.66926829 5.55267857,9.46341463 C5.29955357,9.67414634 4.91986607,9.64682927 4.70290179,9.40097561 C4.4859375,9.15512195 4.5140625,8.78634146 4.7671875,8.57560976 C5.93638393,7.6 7.43303571,7.06341463 8.98191964,7.06341463 C10.5408482,7.06341463 12.0435268,7.60585366 13.2167411,8.59317073 C13.4678571,8.80390244 13.4959821,9.17463415 13.2770089,9.41853659 C13.1584821,9.55121951 12.9897321,9.6195122 12.8209821,9.6195122 Z M8.98191964,15.9843902 C7.44107143,15.9843902 6.1875,14.7726829 6.1875,13.2839024 C6.1875,11.795122 7.44107143,10.5834146 8.98191964,10.5834146 C10.5227679,10.5834146 11.7763393,11.795122 11.7763393,13.2839024 C11.7763393,14.7726829 10.5227679,15.9843902 8.98191964,15.9843902 Z M8.98191964,11.7560976 C8.10602679,11.7560976 7.39285714,12.4409756 7.39285714,13.2858537 C7.39285714,14.1307317 8.10602679,14.8156098 8.98191964,14.8156098 C9.8578125,14.8156098 10.5709821,14.1307317 10.5709821,13.2858537 C10.5709821,12.4409756 9.8578125,11.7560976 8.98191964,11.7560976 Z" id="Shape"></path>
            </g>
        </g>
    </g>
</svg>